<svg width="301.19" height="238.96" viewBox="0 0 79.691 63.225" xmlns="http://www.w3.org/2000/svg"><defs><clipPath id="a"><path d="M0 638h1000V0H0z"/></clipPath></defs><g clip-path="url(#a)" transform="matrix(.1564 0 0 -.1564 -38.351 81.5)"><path d="m246.91 120.14 20.015 58.057h19.881l20.013-58.057h-15.771l-2.918 10.34h-22.4l-3.048-10.34zm22.135 21.605h15.771l-5.83 19.219c-.265.53-.53 1.457-.797 2.787-.398 1.323-.795 3.043-1.192 5.034-.398-1.461-.662-2.784-1.062-4.11-.397-1.322-.662-2.519-1.059-3.711zM311.46 120.14v40.029h13.387v-9.41c1.326 3.447 3.182 5.965 5.566 7.69 2.387 1.72 5.304 2.648 8.616 2.648.661 0 1.192-.133 1.723-.133.53 0 1.192-.135 1.722-.135l-1.325-12.853c-.928.266-1.723.533-2.517.664-.795.133-1.592.133-2.386.133-3.446 0-6.098-1.065-7.953-3.182-1.855-2.119-2.783-5.037-2.783-8.883V120.14zM390.72 181.64v-61.498h-12.989v6.494c-1.724-2.648-3.844-4.769-5.966-6.096-2.253-1.322-4.771-1.984-7.554-1.984-5.567 0-10.073 1.984-13.387 5.83-3.314 3.977-5.036 9.147-5.036 15.772 0 6.359 1.722 11.531 5.036 15.375 3.314 3.976 7.556 5.962 12.856 5.962 3.446 0 6.229-.664 8.35-1.853 2.121-1.191 3.977-3.314 5.701-6.098-.265.928-.265 1.989-.397 3.182-.135 1.193-.135 2.519-.135 3.975v20.939zm-12.459-41.482c0 3.05-.795 5.566-2.519 7.287-1.591 1.859-3.845 2.787-6.76 2.787-2.783 0-5.036-.928-6.761-2.787-1.588-1.721-2.385-4.237-2.385-7.287 0-3.182.797-5.698 2.385-7.426 1.725-1.852 3.978-2.647 6.761-2.647 2.915 0 5.169.795 6.76 2.647 1.724 1.859 2.519 4.244 2.519 7.426M442.28 160.17v-20.412c0-4.506-.265-7.953-1.061-10.072-.663-2.254-1.989-4.11-3.71-5.83-1.724-1.727-3.978-3.051-6.496-3.979-2.65-.793-5.831-1.322-9.41-1.322-3.578 0-6.626.529-9.277 1.322-2.651.928-4.771 2.252-6.628 3.979-1.724 1.587-3.048 3.576-3.712 5.83-.663 2.119-1.06 5.566-1.06 10.072v20.412h13.519v-21.336c0-3.316.532-5.836 1.591-7.293 1.195-1.457 2.916-2.252 5.434-2.252s4.375.795 5.435 2.252 1.59 3.842 1.59 7.293v21.336zM452.88 160.17h14.05v-40.029h-14.05zm-.795 12.461c0 2.119.795 3.974 2.386 5.435 1.457 1.588 3.313 2.25 5.434 2.25 2.254 0 4.108-.662 5.567-2.119 1.458-1.592 2.254-3.316 2.254-5.566 0-2.123-.796-3.977-2.254-5.57-1.592-1.457-3.447-2.25-5.567-2.25-2.121 0-3.977.793-5.434 2.25-1.591 1.593-2.386 3.447-2.386 5.57M477.8 120.14v40.029h12.856v-8.088c1.988 3.186 4.109 5.567 6.496 7.163 2.517 1.455 5.434 2.25 8.881 2.25 2.648 0 4.904-.53 6.891-1.325 1.99-.795 3.712-1.984 4.903-3.58 1.059-1.322 1.854-2.912 2.256-4.902.529-1.986.662-4.774.662-8.613V120.14h-14.05v21.473c0 3.181-.53 5.433-1.59 6.896-1.062 1.455-2.651 2.25-5.035 2.25-2.918 0-5.04-1.058-6.365-3.316-1.325-2.119-1.987-5.698-1.987-10.469V120.14zM573.23 140.03c0-2.918-.529-5.566-1.721-8.221-1.059-2.515-2.653-4.904-4.905-6.89-2.118-2.125-4.507-3.711-7.287-4.774-2.653-1.056-5.439-1.586-8.484-1.586-3.05 0-5.963.53-8.617 1.586-2.653 1.063-5.037 2.649-7.155 4.774-2.124 1.986-3.845 4.242-4.904 6.89-1.064 2.522-1.594 5.303-1.594 8.221s.53 5.697 1.594 8.35c1.059 2.515 2.648 4.904 4.904 6.892 1.986 2.117 4.37 3.578 7.155 4.639 2.654 1.058 5.567 1.588 8.617 1.588 3.045 0 5.962-.53 8.612-1.588 2.652-1.061 5.041-2.522 7.159-4.639 2.252-2.119 3.846-4.377 4.905-7.025 1.192-2.52 1.721-5.299 1.721-8.217m-14.05 0c0 3.049-.795 5.299-2.252 7.021-1.457 1.727-3.579 2.655-6.095 2.655-2.654 0-4.639-.928-6.096-2.655-1.461-1.722-2.256-3.972-2.256-7.021 0-2.918.795-5.303 2.256-7.027 1.457-1.725 3.442-2.518 6.096-2.518 2.516 0 4.638.793 6.095 2.518 1.457 1.724 2.252 4.109 2.252 7.027" fill="#00868e"/><path d="M593.77 178.2h15.776v-37.643c0-4.109-.264-7.287-.799-9.545a18.004 18.004 0 0 0-2.649-5.832c-1.589-2.115-3.58-3.843-5.964-4.902-2.387-1.191-4.903-1.721-7.821-1.721-3.712 0-7.022.793-9.808 2.383-2.914 1.588-5.301 3.846-7.289 6.889l9.676 8.75c.133-1.723.796-3.045 1.589-3.977.928-.927 1.987-1.326 3.316-1.326 1.456 0 2.516.797 3.178 2.524.529 1.586.795 5.83.795 12.455zM616.44 123.46l3.051 10.734c1.985-1.724 4.237-3.181 6.758-4.107 2.519-.928 4.903-1.459 7.424-1.459 1.854 0 3.178.268 4.105.928.933.531 1.329 1.326 1.329 2.384 0 1.86-1.858 3.182-5.571 3.979-1.192.264-2.251.529-2.913.793-4.242 1.191-7.292 2.652-9.279 4.639-1.853 1.859-2.786 4.244-2.786 7.293 0 3.839 1.462 7.021 4.375 9.277 2.917 2.385 6.895 3.576 11.8 3.576 2.648 0 5.168-.396 7.816-.928a53.904 53.904 0 0 0 8.22-2.785l-2.918-9.67c-1.853 1.192-3.841 2.25-5.698 2.912-1.986.664-3.846.928-5.831.928-1.589 0-2.786-.264-3.713-.793-.794-.533-1.192-1.193-1.192-2.119 0-1.463 1.855-2.654 5.566-3.582.928-.264 1.457-.396 1.859-.529 4.904-1.455 8.348-3.051 10.205-4.903 1.987-1.988 2.914-4.507 2.914-7.691 0-4.104-1.589-7.42-4.771-9.939-3.047-2.518-7.289-3.84-12.457-3.84-3.448 0-6.763.396-9.809 1.191-2.918.793-5.831 2.119-8.484 3.711M701.93 140.03c0-2.918-.53-5.566-1.723-8.221a20.15 20.15 0 0 0-4.77-6.89c-2.252-2.125-4.64-3.711-7.288-4.774a23.769 23.769 0 0 0-8.616-1.586c-3.051 0-5.964.53-8.618 1.586-2.647 1.063-5.036 2.649-7.155 4.774-2.123 1.986-3.712 4.242-4.903 6.89-1.065 2.522-1.594 5.303-1.594 8.221s.529 5.697 1.594 8.35c1.191 2.515 2.78 4.904 4.903 6.892 2.119 2.117 4.508 3.578 7.155 4.639 2.654 1.058 5.567 1.588 8.618 1.588 3.177 0 5.962-.53 8.616-1.588 2.781-1.061 5.169-2.522 7.288-4.639 2.119-2.119 3.713-4.377 4.904-7.025 1.059-2.52 1.589-5.299 1.589-8.217m-14.05 0c0 3.049-.663 5.299-2.252 7.021-1.457 1.727-3.447 2.655-6.095 2.655-2.521 0-4.64-.928-6.097-2.655-1.461-1.722-2.255-3.972-2.255-7.021 0-2.918.794-5.303 2.255-7.027 1.457-1.725 3.576-2.518 6.097-2.518 2.648 0 4.638.793 6.095 2.518 1.589 1.724 2.252 4.109 2.252 7.027M710.01 120.14v40.029h12.992v-8.088c1.854 3.186 3.973 5.567 6.492 7.163 2.516 1.455 5.434 2.25 8.882 2.25 2.516 0 4.904-.53 6.89-1.325s3.58-1.984 4.904-3.58c1.06-1.322 1.854-2.912 2.257-4.902.396-1.986.661-4.774.661-8.613V120.14h-14.05v21.473c0 3.181-.529 5.433-1.589 6.896-1.064 1.455-2.786 2.25-5.042 2.25-2.913 0-5.036-1.058-6.492-3.316-1.324-2.119-1.987-5.698-1.987-10.469V120.14zM703.39 417.11l-8.81-3.271c5.363-15.116 8.291-31.384 8.291-48.338 0-4.616-.226-9.177-.648-13.683l9.375-.627c.434 4.712.667 9.484.667 14.31 0 18.104-3.136 35.475-8.875 51.609M558.32 220.95c-15.705 0-30.819 2.516-44.978 7.146a153.294 153.294 0 0 0-11.51-5.49c-.144-.06-.29-.117-.434-.177 17.609-7.012 36.814-10.874 56.922-10.874 48.132 0 91.098 22.094 119.33 56.688l-8.571 4.381c-26.517-31.586-66.288-51.674-110.76-51.674" fill="#e5ad23"/><path d="M441.68 219.54c-21.463 0-41.833 4.674-60.154 13.053l-4.695-7.885c19.71-9.17 41.679-14.299 64.849-14.299 21.177 0 41.352 4.283 59.716 12.022a153.11 153.11 0 0 0-11.733 5.257c-15.018-5.273-31.164-8.148-47.983-8.148" fill="#e47128"/><path d="M552.47 271.13c.009 0 .017-.004.023-.004-.006 0-.014.004-.023.004M554.52 271.03a83.931 83.931 0 0 1 3.8-.098c1.279 0 2.549.041 3.814.098a94.767 94.767 0 0 0-3.818-.096c-1.273 0-2.534.045-3.796.096M554.31 459.97c1.311.054 2.624.099 3.947.1a84.766 84.766 0 0 1-3.947-.1M550.65 459.73h.006-.006M564.11 271.12c.021.002.04.002.061.006h.001c-.021 0-.041-.004-.062-.006M562.34 459.97c-1.334.056-2.67.101-4.018.101h-.002c1.349 0 2.686-.046 4.021-.102l-.001.001M595.63 364.35c0 33.746-10.866 64.951-29.28 90.321a90.409 90.409 0 0 1-8.033.377c-1.23 0-2.45-.044-3.667-.093 19.923-24.808 31.849-56.312 31.849-90.605 0-33.273-11.235-63.909-30.102-88.358.64-.014 1.276-.049 1.92-.049 3.298 0 6.55.191 9.755.539 17.361 24.918 27.558 55.196 27.558 87.868" fill="#e5ad23"/><path d="M672.62 365.5c0 63.125-51.175 114.3-114.3 114.3-4.692 0-9.316-.289-13.861-.839-3.962-.48-7.86-1.156-11.687-2.03a145.022 145.022 0 0 0 8.947-7.866c3.831.61 7.731 1.013 11.688 1.195 1.629.076 3.266.119 4.913.119 57.922 0 104.88-46.956 104.88-104.88 0-3.787-.206-7.525-.597-11.208l9.292-1.675c.474 4.23.727 8.526.727 12.883" fill="#e5ad23"/><path d="m383.38 235.7 2.881 4.838c-47.274 21.193-80.206 68.66-80.206 123.82 0 8.489.321 14.111 1.814 22.167l-18.228 2.079a155.144 155.144 0 0 1-1.907-24.246c0-61.852 36.484-115.18 89.1-139.65l4.695 7.885zM475.99 495.6a134.617 134.617 0 0 0 12.062-3.756 142.93 142.93 0 0 0 6.585 3.453c1.45.713 2.909 1.406 4.384 2.071a143.17 143.17 0 0 0 11.648 4.638c14.921 5.208 30.952 8.047 47.649 8.047 50.216 0 94.445-25.61 120.36-64.478l7.703 5.385c-27.61 41.291-74.657 68.488-128.06 68.488-21.178 0-41.356-4.278-59.72-12.015a153.202 153.202 0 0 1-11.628-5.493 152.38 152.38 0 0 1-4.39-2.391 141.193 141.193 0 0 1-50.108 5.718l-.323-5.623a135.848 135.848 0 0 0 43.841-4.044" fill="#62aeb2"/><path d="m342.81 347.38 4.169 2.559a96.39 96.39 0 0 0-1.083 14.418c0 51.248 40.26 93.047 90.872 95.611a154.602 154.602 0 0 0 3.806 4.693 155.257 155.257 0 0 0 6.155 6.887c-1.673.08-3.352.136-5.045.136-59.276 0-107.33-48.053-107.33-107.33 0-57.863 45.79-105.02 103.11-107.24l-5.896 7.424c-45.017 4.51-81.248 38.772-88.761 82.837" fill="#62aeb2"/><path d="M454.56 264.87a148.932 148.932 0 0 0-3.857 4.131 145.173 145.173 0 0 0-14.674 19.422l-10.18-1.379a154.653 154.653 0 0 1 12.825-18.408 155.187 155.187 0 0 1 10.177-11.368 156.325 156.325 0 0 1 7.121-6.742l10.99 2.959a143.075 143.075 0 0 0-6.091 5.254 144.273 144.273 0 0 0-6.311 6.131M420.05 407.76l-9.694.332a153.96 153.96 0 0 1-5.979-42.596c0-20.788 4.126-40.609 11.596-58.699h10.22c-7.983 17.938-12.422 37.799-12.422 58.699 0 14.704 2.197 28.895 6.279 42.264M458.43 365.5c0-17.657 4.593-34.231 12.636-48.619l4.824 2.261c-.085.15-.164.305-.247.456-.309.553-.611 1.11-.909 1.671a100.017 100.017 0 0 0-3.833 8.142 94.53 94.53 0 0 0-1.251 3.173c-.178.479-.342.965-.512 1.449a95.322 95.322 0 0 0-.813 2.401c-.16.498-.323.994-.476 1.496a92.022 92.022 0 0 0-.986 3.474c-.119.448-.225.9-.337 1.351-.232.939-.45 1.884-.654 2.834-.087.408-.181.812-.263 1.222a93.627 93.627 0 0 0-.674 3.776c-.067.418-.126.838-.186 1.258a94.464 94.464 0 0 0-.425 3.343c-.031.282-.069.562-.097.844a95.78 95.78 0 0 0-.366 5.239 94.86 94.86 0 0 0-.1 3.965c0 .088-.007.175-.007.264 0 .173.012.344.013.517.007 1.306.039 2.606.099 3.898.025.564.069 1.123.105 1.685.058.914.124 1.826.208 2.733a96.424 96.424 0 0 0 .513 4.374c.089.638.178 1.276.28 1.91.132.823.284 1.64.438 2.456.116.616.222 1.236.349 1.848.271 1.292.566 2.576.888 3.849.192.756.41 1.501.62 2.251.166.593.328 1.188.505 1.777.243.808.505 1.608.77 2.407.164.498.33.995.503 1.489.297.848.604 1.692.924 2.531.146.38.298.759.449 1.138.369.93.743 1.856 1.14 2.771l.022.048a94.131 94.131 0 0 0 7.034 13.177c.004.009.01.017.015.025a95.434 95.434 0 0 0 4.24 6.115l-5.094 2.048C465.621 408.009 458.43 387.6 458.43 365.5" fill="#62aeb2"/><path d="m581.16 243.57-2.615 9.418-2.535 9.131c45.885 7.797 81.619 45.39 86.59 92.177.391 3.682.597 7.42.597 11.207 0 57.922-46.956 104.88-104.88 104.88-1.647 0-3.284-.043-4.913-.119a105.226 105.226 0 0 1-11.688-1.194 104.98 104.98 0 0 1-4.422-.797 103.31 103.31 0 0 1-6.613-1.578 104.297 104.297 0 0 1-17.449-6.475 104.871 104.871 0 0 1-18.076-10.988 100.108 100.108 0 0 1-8.89 4.998 114.256 114.256 0 0 0 18.06 12.038 113.806 113.806 0 0 0 10.644 5.02c2.225.913 4.484 1.764 6.778 2.54 2.179.735 4.39 1.399 6.626 2.004 1.455.394 2.919.766 4.395 1.103a115.525 115.525 0 0 0 25.548 2.869c63.125 0 114.3-51.173 114.3-114.3 0-4.357-.253-8.653-.727-12.883l9.607-1.732c-6.345-54.048-47.438-97.468-100.34-107.32m-22.841 27.365c-1.275 0-2.54.041-3.8.098-.676.025-1.35.058-2.024.098-.007 0-.015.003-.023.003a94.109 94.109 0 0 0-53.919 21.088c-.391.323-.775.651-1.161.975a100.902 100.902 0 0 0-3.216 2.834 99.216 99.216 0 0 0-1.786 1.705c-.4.389-.807.772-1.2 1.168a90.995 90.995 0 0 0-2.536 2.66c-.474.516-.932 1.047-1.394 1.574-.414.471-.827.942-1.231 1.418a99.82 99.82 0 0 0-2.487 3.084c-.48.621-.96 1.241-1.424 1.869-.029.041-.06.079-.089.118l-4.694-2.575-4.419-2.419c-12.258 17.162-19.475 38.172-19.475 60.87 0 25.55 9.142 48.961 24.325 67.153l4.675-2.22 4.99-2.369a94.878 94.878 0 0 0 28.026 21.725c.266.137.532.277.803.411.77.384 1.547.755 2.33 1.118.419.194.841.382 1.263.571a93.97 93.97 0 0 0 30.794 7.843h.006c1.216.097 2.434.183 3.66.234 1.31.062 2.624.099 3.948.101H558.316c1.348 0 2.684-.044 4.018-.1l.024-.002a94.398 94.398 0 0 0 4.382-.292c.116-.009.234-.015.352-.026a93.293 93.293 0 0 0 4.156-.483c.171-.023.344-.041.514-.065a95.083 95.083 0 0 0 3.956-.657c.213-.041.431-.075.646-.116a93.744 93.744 0 0 0 3.769-.817c.252-.06.505-.113.756-.175a91.676 91.676 0 0 0 3.593-.963c.283-.082.571-.158.853-.243a92.313 92.313 0 0 0 3.426-1.099c.31-.106.623-.207.933-.316 1.1-.387 2.186-.798 3.267-1.225.332-.13.666-.257.997-.392a96.367 96.367 0 0 0 3.11-1.339c.354-.159.708-.315 1.059-.479a92.603 92.603 0 0 0 2.954-1.441c.371-.189.742-.376 1.109-.569a92.422 92.422 0 0 0 2.801-1.535c.387-.219.771-.439 1.154-.664a93.505 93.505 0 0 0 2.648-1.617c.399-.253.796-.506 1.192-.764a92.352 92.352 0 0 0 2.493-1.69 89.785 89.785 0 0 0 4.812-3.6 95.347 95.347 0 0 0 5.505-4.752c.426-.397.846-.802 1.267-1.207a96.934 96.934 0 0 0 1.904-1.89c.426-.437.845-.881 1.263-1.326a96.568 96.568 0 0 0 1.761-1.918c.425-.478.84-.964 1.255-1.449a96.685 96.685 0 0 0 1.621-1.939c.419-.518.826-1.045 1.235-1.572.501-.647 1-1.295 1.485-1.954.41-.559.806-1.128 1.205-1.696.455-.649.91-1.3 1.35-1.962.4-.601.783-1.212 1.168-1.822.412-.652.825-1.301 1.22-1.963.384-.643.752-1.297 1.121-1.95.368-.65.738-1.297 1.092-1.956.367-.687.715-1.386 1.065-2.083.326-.644.655-1.286.965-1.939.348-.731.673-1.474 1.002-2.216.283-.637.573-1.272.842-1.917.324-.778.624-1.567.929-2.354.242-.627.493-1.25.722-1.883.299-.828.571-1.668.848-2.506.201-.61.413-1.215.602-1.83.272-.884.513-1.781.759-2.676.162-.585.335-1.164.486-1.753.242-.952.451-1.916.665-2.879.12-.546.256-1.087.367-1.638.211-1.038.384-2.089.56-3.138.082-.488.18-.97.255-1.461.178-1.174.316-2.361.451-3.549.042-.376.1-.747.139-1.124.148-1.468.256-2.947.337-4.434.005-.103.018-.205.023-.307.082-1.609.125-3.227.125-4.855 0-1.619-.044-3.227-.124-4.826-.013-.244-.04-.484-.054-.728a93.422 93.422 0 0 0-.304-3.987c-.045-.459-.114-.911-.167-1.368a93.13 93.13 0 0 0-.416-3.278c-.083-.549-.189-1.089-.28-1.634-.167-.983-.329-1.966-.526-2.937-.119-.594-.261-1.179-.391-1.769-.203-.911-.402-1.823-.629-2.724-.157-.62-.335-1.231-.505-1.847-.234-.855-.467-1.711-.726-2.557-.195-.639-.41-1.267-.617-1.901-.265-.806-.53-1.613-.816-2.411-.234-.65-.484-1.291-.732-1.933-.294-.764-.586-1.527-.899-2.28-.272-.658-.561-1.307-.849-1.957a90.549 90.549 0 0 0-.971-2.152c-.314-.663-.641-1.317-.968-1.972a94.17 94.17 0 0 0-1.038-2.026 94.763 94.763 0 0 0-1.089-1.98 93.772 93.772 0 0 0-1.095-1.902 93.042 93.042 0 0 0-1.213-1.985c-.375-.595-.753-1.189-1.14-1.779a109.172 109.172 0 0 0-2.519-3.635 91.938 91.938 0 0 0-2.676-3.498 92.36 92.36 0 0 0-1.617-1.969 109.552 109.552 0 0 0-2.974-3.353 94.078 94.078 0 0 0-1.194-1.25 91.336 91.336 0 0 0-1.932-1.955c-.383-.375-.775-.74-1.164-1.111a96.75 96.75 0 0 0-2.105-1.942c-.366-.324-.739-.641-1.11-.961a99.453 99.453 0 0 0-2.303-1.937c-.334-.27-.676-.53-1.014-.797a95.448 95.448 0 0 0-2.53-1.934c-.289-.213-.586-.416-.879-.625a94.486 94.486 0 0 0-2.792-1.941c-.221-.145-.447-.283-.669-.428a95.711 95.711 0 0 0-3.124-1.961c-.113-.068-.229-.131-.342-.197a93.997 93.997 0 0 0-42.053-12.928 2.428 2.428 0 0 0-.168-.014c-.021-.003-.04-.003-.061-.005a91.893 91.893 0 0 0-1.978-.096 84.71 84.71 0 0 0-3.815-.098m-85.397-22.062a120.25 120.25 0 0 0-31.241-4.131c-66.062 0-119.62 53.557-119.62 119.62 0 66.06 53.553 119.61 119.62 119.61a120.528 120.528 0 0 0 28.968-3.539 119.713 119.713 0 0 0 8.984-2.611 137.84 137.84 0 0 1-11.885-9.36 137.608 137.608 0 0 1-6.202-5.799 136.297 136.297 0 0 1-3.749-3.893c-22.715-24.472-36.612-57.243-36.612-93.266 0-36.992 14.653-70.558 38.464-95.226a139.838 139.838 0 0 1 3.856-3.846 137.803 137.803 0 0 1 6.308-5.668 137.887 137.887 0 0 1 12.028-9.103 119.98 119.98 0 0 0-8.919-2.787m221.27 98.007a139.13 139.13 0 0 1 1.263 18.623c0 16.046-2.766 31.444-7.829 45.756a133.266 133.266 0 0 1-1.724 4.626l6.893 2.746 8.729 3.476a153.345 153.345 0 0 1-10.98 22.267l-7.722-5.398-6.098-4.262a137.377 137.377 0 0 1-4.129 6.611c-24.569 36.953-66.575 61.311-114.28 61.311a137.187 137.187 0 0 1-50.301-9.519 137.253 137.253 0 0 1-4.386-1.829c-2.231-.972-4.43-2-6.597-3.084a136.804 136.804 0 0 1-6.785-3.63 128.316 128.316 0 0 1-21.044 6.476 130.064 130.064 0 0 1-27.525 2.939c-5.952 0-11.807-.41-17.545-1.186v11.687c-47.353-5.868-87.438-35.177-108.28-75.958-1.506-2.943.317 1.31-.982-1.749l-12.972 2.059c-4.076-8.46-7.828-18.427-10.767-32.195l24.257-2.727c-.699-2.652-.383-1.799-.915-4.514a130.18 130.18 0 0 1-2.428-25.048c0-71.595 58.038-129.63 129.63-129.63 10.329 0 20.368 1.233 30 3.516 4.071.965 8.063 2.127 11.975 3.465.891.304 1.789.594 2.672.916 2.115.775 4.194 1.625 6.256 2.506a136.833 136.833 0 0 1 17.947-8.194 136.293 136.293 0 0 1 11.726-3.763 137.333 137.333 0 0 1 36.062-4.801c64.248 0 118.17 44.185 133.05 103.83l7.379-1.056c-4.883-20.026-13.934-38.415-26.188-54.198l8.534-4.31c15.737 20.773 26.325 45.657 29.862 72.763l-9.37.83z" fill="#00868e"/><path d="M554.65 454.96a89.134 89.134 0 0 1-28.527-5.896c21.724-21.656 35.173-51.611 35.173-84.709 0-13.873-2.363-27.191-6.707-39.58l-12.005 2.938c4.153 11.435 6.425 23.771 6.425 36.642 0 31.303-13.42 59.455-34.8 79.071a89.816 89.816 0 0 1-9.978-6.562c20.346-17.563 33.238-43.523 33.238-72.509 0-28.309-12.292-53.734-31.815-71.269 14.298-10.416 31.794-16.689 50.743-17.09 18.867 24.449 30.103 55.086 30.103 88.359 0 34.293-11.926 65.797-31.85 90.605" fill="#00868e"/><path d="m393.19 500.78-2.466 8.942c-37.188-13.021-67.852-39.919-85.788-74.484l9.666-1.535c16.934 30.994 44.882 55.11 78.588 67.077" fill="#e5ad23"/></g></svg>